<svg version="1.1" xmlns="http://www.w3.org/2000/svg" xmlns:xlink="http://www.w3.org/1999/xlink" width="24" height="24" viewBox="0,0,256,256"><g fill="#ffffff" fill-rule="nonzero" stroke="none" stroke-width="1" stroke-linecap="butt" stroke-linejoin="miter" stroke-miterlimit="10" stroke-dasharray="" stroke-dashoffset="0" font-family="none" font-weight="none" font-size="none" text-anchor="none" style="mix-blend-mode: normal"><g transform="translate(-0.0052,0.00001) scale(10.66667,10.66667)"><path d="M12,2.5c-2.39938,-0.00066 -4.4939,1.62544 -5.08798,3.95011c-0.59408,2.32467 0.46347,4.7563 2.56898,5.90689c-3.74371,1.09306 -6.35829,4.47179 -6.477,8.37c-0.00619,0.19894 0.06694,0.39218 0.2033,0.53717c0.13636,0.14499 0.32476,0.22983 0.5237,0.23583h16.539c0.4139,-0.01251 0.73934,-0.3581 0.727,-0.772c-0.11871,-3.89821 -2.73329,-7.27694 -6.477,-8.37c2.10678,-1.15018 3.1652,-3.58273 2.57072,-5.90825c-0.59447,-2.32552 -2.69043,-3.95171 -5.09072,-3.94975z"></path></g></g></svg>