<svg version="1.1" xmlns="http://www.w3.org/2000/svg" xmlns:xlink="http://www.w3.org/1999/xlink" width="24" height="24" viewBox="0,0,256,256"><g fill="#ffffff" fill-rule="nonzero" stroke="none" stroke-width="1" stroke-linecap="butt" stroke-linejoin="miter" stroke-miterlimit="10" stroke-dasharray="" stroke-dashoffset="0" font-family="none" font-weight="none" font-size="none" text-anchor="none" style="mix-blend-mode: normal"><g transform="translate(-0.66502,5.32718) scale(10.66667,10.66667)"><path d="M9.496,2c-2.39938,-0.00066 -4.4939,1.62544 -5.08798,3.95011c-0.59408,2.32467 0.46347,4.7563 2.56898,5.90689c-3.74386,1.09344 -6.35841,4.47253 -6.477,8.371c-0.01177,0.41407 0.31395,0.75948 0.728,0.772h5.257c3.338,0.001 6.677,0.002 10.015,0c0.27614,0 0.5,-0.22386 0.5,-0.5v-4.669c0.0015,-0.19695 -0.05826,-0.3895 -0.171,-0.551c-1.17499,-1.64897 -2.87062,-2.85466 -4.814,-3.423c2.10551,-1.15058 3.16306,-3.58221 2.56898,-5.90689c-0.59408,-2.32467 -2.6886,-3.95078 -5.08798,-3.95011z"></path><path d="M23.625,10.313c0,1.31 -0.672,2.464 -1.691,3.134c-0.11296,0.07202 -0.18212,0.19604 -0.184,0.33v0.886c0.00024,0.09949 -0.03937,0.19493 -0.11,0.265l-0.534,0.534c-0.07284,0.07332 -0.07284,0.19168 0,0.265l0.534,0.534c0.071,0.07 0.11,0.166 0.11,0.265v0.347c0.00002,0.09944 -0.03956,0.1948 -0.11,0.265l-0.534,0.534c-0.07284,0.07332 -0.07284,0.19168 0,0.265l0.534,0.534c0.07082,0.06994 0.11047,0.16547 0.11,0.265v0.431c-0.00005,0.0934 -0.0346,0.1835 -0.097,0.253l-1.2,1.319c-0.14802,0.16289 -0.3579,0.25576 -0.578,0.25576c-0.2201,0 -0.42998,-0.09287 -0.578,-0.25576l-1.2,-1.319c-0.0624,-0.0695 -0.09695,-0.1596 -0.097,-0.253v-5.39c-0.00188,-0.13396 -0.07104,-0.25798 -0.184,-0.33c-1.49831,-0.98432 -2.09039,-2.89146 -1.41294,-4.55125c0.67744,-1.65979 2.43491,-2.60796 4.19408,-2.26274c1.75916,0.34522 3.02795,1.88727 3.02787,3.67998zM21,9.75c0,-0.62132 -0.50368,-1.125 -1.125,-1.125c-0.62132,0 -1.125,0.50368 -1.125,1.125c0,0.62132 0.50368,1.125 1.125,1.125c0.62132,0 1.125,-0.50368 1.125,-1.125z"></path></g></g></svg>